<svg fill="#333" viewBox="0 0 512 512" xmlns="http://www.w3.org/2000/svg" xmlns:xlink="http://www.w3.org/1999/xlink"><rect fill="#fff" height="512" rx="15%" width="512"/><path id="a" d="m84 265h82q17-1 18-18v-108q-1-17-18-18h-64q-17 1-18 18v64q1 17 18 18h43v-24h-29q-8 0-8-8v-36q0-8 8-8h36q8 0 8 8v80q0 8-8 8h-68z"/><path id="b" d="m224 221h64q17-1 18-18v-64q-1-17-18-18h-64q-17 1-18 18v64q1 17 18 18zm14-24q-8 0-8-8v-36q0-8 8-8h36q8 0 8 8v36q0 8-8 8z"/><use x="244" xlink:href="#a"/><use x="-19" xlink:href="#b" y="170"/><path d="m307 391h24v-67q0-8 8-8h16v75h24v-67q0-8 8-8h16v75h24v-100h-102q-17-1-18 18zm-140-100h-65q-17 1-18 18v64q1 17 18 18h65v-24h-51q-8 0-8-8v-36q0-8 8-8h51z"/></svg>